<mxfile host="app.diagrams.net" agent="Mozilla/5.0 (X11; Linux x86_64) AppleWebKit/537.36 (KHTML, like Gecko) Chrome/133.0.0.0 Safari/537.36" version="26.0.16">
  <diagram name="Page-1" id="q5MENWoQyxdasJggcYBu">
    <mxGraphModel dx="1430" dy="863" grid="1" gridSize="10" guides="1" tooltips="1" connect="1" arrows="1" fold="1" page="1" pageScale="1" pageWidth="850" pageHeight="1100" math="0" shadow="0">
      <root>
        <mxCell id="0" />
        <mxCell id="1" parent="0" />
        <mxCell id="92TxnO3NngLsv3Bg7hjE-1" value="&lt;font style=&quot;color: light-dark(rgb(255, 255, 255), rgb(237, 237, 237));&quot;&gt;Calendar&lt;/font&gt;" style="ellipse;whiteSpace=wrap;html=1;aspect=fixed;fillColor=#008a00;fontColor=#ffffff;strokeColor=#005700;" vertex="1" parent="1">
          <mxGeometry x="200" y="220" width="260" height="260" as="geometry" />
        </mxCell>
        <mxCell id="92TxnO3NngLsv3Bg7hjE-3" value="Event" style="ellipse;whiteSpace=wrap;html=1;aspect=fixed;fillColor=#d80073;fontColor=#ffffff;strokeColor=#A50040;" vertex="1" parent="1">
          <mxGeometry x="250" y="380" width="80" height="80" as="geometry" />
        </mxCell>
        <mxCell id="92TxnO3NngLsv3Bg7hjE-4" value="" style="endArrow=none;html=1;rounded=0;" edge="1" parent="1" source="92TxnO3NngLsv3Bg7hjE-5" target="92TxnO3NngLsv3Bg7hjE-3">
          <mxGeometry width="50" height="50" relative="1" as="geometry">
            <mxPoint x="400" y="470" as="sourcePoint" />
            <mxPoint x="450" y="420" as="targetPoint" />
          </mxGeometry>
        </mxCell>
        <mxCell id="92TxnO3NngLsv3Bg7hjE-5" value="Resource" style="ellipse;whiteSpace=wrap;html=1;aspect=fixed;fillColor=#1ba1e2;fontColor=#ffffff;strokeColor=#006EAF;" vertex="1" parent="1">
          <mxGeometry x="370" y="540" width="80" height="80" as="geometry" />
        </mxCell>
      </root>
    </mxGraphModel>
  </diagram>
</mxfile>
